<svg xmlns="http://www.w3.org/2000/svg" width="2467" height="259" fill="none" viewBox="0 0 2467 259"><g clip-path="url(#a)"><path fill="#fff" d="M1400.97 0h-402.6c-11.046 0-20 8.954-20 20v218.18c0 11.046 8.954 20 20 20h402.6c11.05 0 20-8.954 20-20V20c0-11.046-8.95-20-20-20"/><path fill="#1E1E1E" d="M1142.8 96.75c-1.08.99-2.17 1.97-3.23 2.97-3.77 3.56-6.6 7.71-7.6 12.88-1.38 7.16.09 13.73 4.43 19.62 2.17 2.94 4.76 5.39 8.21 6.79.4.16.81.31 1.31.5-.45 1.22-.85 2.42-1.33 3.59-2.81 6.8-6.46 13.1-11.44 18.56-.93 1.02-1.97 1.94-3.05 2.81-3.64 2.95-7.72 4.08-12.31 2.74-2.29-.67-4.56-1.42-6.85-2.13-2.35-.73-4.73-1.31-7.21-1.37-3.07-.07-5.92.85-8.75 1.89-2.16.79-4.32 1.62-6.55 2.15-3.51.83-6.67-.25-9.58-2.22-2.93-1.98-5.25-4.59-7.26-7.46-5.04-7.19-8.87-14.97-11.23-23.45-2.09-7.54-2.68-15.2-1.5-22.95 1.04-6.84 3.59-13 8.4-18.1 4.99-5.28 11.12-7.45 18.31-6.74 3.58.36 7 1.39 10.44 2.39 1.43.42 2.89.73 4.34 1.1 2.07.52 4.11.29 6.11-.3 2.82-.83 5.6-1.76 8.42-2.6 4.19-1.24 8.43-1.6 12.75-.76 5.59 1.08 10 4.09 13.7 8.29.46.53.92 1.06 1.37 1.6.04.05.06.12.1.2"/><path fill="#1E1E1E" d="M1121.79 62.33c.06 1.23.23 2.38.15 3.52-.43 6.22-2.88 11.56-7.17 16.07-1.94 2.03-4.08 3.82-6.72 4.86-2.25.89-4.64 1.08-7.03 1.26-.04 0-.08-.04-.11-.06.33-13.88 7.34-22.86 20.88-25.65m50.85 16.5c5.54-.92 12.8-1.71 22.03-1.71 11.35 0 19.66 2.64 24.93 7.39 4.88 4.22 7.78 10.69 7.78 18.6s-2.37 14.38-6.86 19c-6.07 6.46-15.96 9.76-27.18 9.76-3.43 0-6.6-.13-9.23-.79v35.62h-11.48V78.84zm11.48 42.88c2.51.66 5.67.92 9.5.92 13.85 0 22.3-6.73 22.3-19s-8.31-17.41-20.98-17.41c-5.01 0-8.84.4-10.82.92zm84.68 44.98-.92-8.05h-.4c-3.56 5.01-10.42 9.5-19.52 9.5-12.93 0-19.53-9.1-19.53-18.34 0-15.44 13.72-23.88 38.39-23.75v-1.32c0-5.28-1.45-14.78-14.51-14.78-5.94 0-12.14 1.85-16.62 4.75l-2.64-7.65c5.28-3.43 12.93-5.67 20.98-5.67 19.53 0 24.27 13.32 24.27 26.12v23.88c0 5.54.26 10.95 1.06 15.3h-10.55zm-1.71-32.59c-12.66-.26-27.04 1.98-27.04 14.38 0 7.52 5.01 11.08 10.95 11.08 8.31 0 13.59-5.28 15.43-10.69.4-1.19.66-2.51.66-3.69zm26.63-31.26 13.98 37.73c1.45 4.22 3.03 9.23 4.09 13.06h.26c1.19-3.83 2.51-8.71 4.09-13.32l12.67-37.47h12.27l-17.41 45.51c-8.31 21.9-13.98 33.11-21.9 39.97-5.67 5.01-11.34 6.99-14.25 7.52l-2.9-9.76c2.9-.92 6.73-2.77 10.16-5.67 3.17-2.51 7.12-6.99 9.76-12.93.53-1.19.92-2.11.92-2.77s-.26-1.58-.79-3.03l-23.61-58.84z"/><path fill="#fff" d="M1921.99 0h-402.6c-11.05 0-20 8.954-20 20v218.18c0 11.046 8.95 20 20 20h402.6c11.05 0 20-8.954 20-20V20c0-11.046-8.95-20-20-20"/><path fill="#1E1E1E" d="M1712.33 85.8v30.98h19.11c4.55 0 8.31-1.53 11.29-4.59 3.06-3.05 4.59-6.69 4.59-10.91s-1.53-7.73-4.59-10.79c-2.98-3.14-6.74-4.71-11.29-4.71h-19.11zm0 41.89v35.94h-11.41V74.89h30.27c7.69 0 14.21 2.56 19.59 7.68 5.47 5.12 8.2 11.36 8.2 18.71s-2.73 13.8-8.2 18.84c-5.29 5.04-11.83 7.56-19.59 7.56h-18.86zm58.18 17.34c0 2.98 1.26 5.45 3.79 7.44 2.53 1.98 5.48 2.97 8.87 2.97 4.8 0 9.07-1.78 12.83-5.33 3.76-3.56 5.65-7.72 5.65-12.51-3.56-2.82-8.52-4.22-14.89-4.22-4.63 0-8.5 1.12-11.6 3.35s-4.65 4.99-4.65 8.29m14.77-44.12q12.66 0 19.98 6.75c4.88 4.51 7.31 10.68 7.31 18.53v37.43h-10.92v-8.43h-.5c-4.71 6.94-11 10.4-18.85 10.4-6.7 0-12.32-1.98-16.81-5.94-4.51-3.97-6.77-8.92-6.77-14.88 0-6.28 2.37-11.27 7.13-14.99s11.11-5.58 19.04-5.58c6.78 0 12.37 1.24 16.75 3.72v-2.6c0-3.96-1.57-7.33-4.71-10.1-3.15-2.77-6.82-4.15-11.04-4.15-6.37 0-11.41 2.68-15.13 8.06l-10.06-6.32c5.55-7.93 13.73-11.9 24.57-11.9m89.96 2-38.1 87.49h-11.78l14.14-30.61-25.06-56.88h12.42l18.11 43.62h.24l17.62-43.62z"/><path fill="#4285F4" d="M1666.21 119.94c0-3.59-.3-7.05-.88-10.37h-48.14v19.64h27.57c-1.18 6.4-4.76 11.85-10.19 15.5v12.75h16.45c9.63-8.88 15.18-22 15.18-37.51"/><path fill="#34A853" d="M1617.19 169.77c13.78 0 25.37-4.52 33.83-12.32l-16.45-12.75c-4.58 3.08-10.48 4.88-17.38 4.88-13.31 0-24.61-8.97-28.66-21.05h-16.95v13.13c8.4 16.66 25.67 28.1 45.61 28.1"/><path fill="#FABB05" d="M1588.54 128.53c-1.03-3.08-1.6-6.37-1.6-9.76s.57-6.68 1.6-9.76V95.87h-16.95a50.7 50.7 0 0 0-5.44 22.89c0 8.23 1.96 16.02 5.44 22.89l16.95-13.13z"/><path fill="#E94235" d="M1617.19 87.97c7.52 0 14.27 2.58 19.58 7.65l14.57-14.55c-8.85-8.23-20.38-13.28-34.15-13.28-19.94 0-37.21 11.43-45.61 28.09l16.95 13.14c4.04-12.08 15.34-21.05 28.66-21.05"/><path fill="#fff" d="M2446.2 0h-402.6c-11.05 0-20 8.954-20 20v218.18c0 11.046 8.95 20 20 20h402.6c11.05 0 20-8.954 20-20V20c0-11.046-8.95-20-20-20"/><path fill="#6772E5" d="M2119.37 115.95c0-3.16 2.6-4.38 6.9-4.38 6.17 0 13.96 1.87 20.12 5.19V97.69c-6.73-2.68-13.39-3.73-20.12-3.73-16.47 0-27.43 8.6-27.43 22.96 0 22.4 30.83 18.83 30.83 28.48 0 3.73-3.25 4.95-7.79 4.95-6.73 0-15.34-2.76-22.15-6.49v19.31c7.55 3.25 15.17 4.63 22.15 4.63 16.88 0 28.48-8.36 28.48-22.88-.08-24.18-31-19.88-31-28.97zm54.85-38.22-19.8 4.22-.08 65c0 12.01 9.01 20.85 21.02 20.85 6.65 0 11.52-1.22 14.2-2.68v-16.47c-2.6 1.05-15.42 4.79-15.42-7.22v-28.81h15.42V95.34h-15.42zm40.57 23.61-1.3-6h-17.53v71h20.29v-48.12c4.79-6.25 12.9-5.11 15.42-4.22V95.34c-2.6-.97-12.09-2.76-16.88 6m21.83-6h20.37v71h-20.37zm0-6.17 20.37-4.38V68.32l-20.37 4.3zm62.72 4.79c-7.95 0-13.06 3.73-15.9 6.33l-1.05-5.03h-17.85v94.61l20.29-4.3.08-22.96c2.92 2.11 7.22 5.11 14.36 5.11 14.52 0 27.75-11.68 27.75-37.41-.08-23.53-13.47-36.35-27.67-36.35zm-4.87 55.91c-4.79 0-7.63-1.7-9.57-3.81l-.08-30.1c2.11-2.35 5.03-3.98 9.66-3.98 7.38 0 12.5 8.28 12.5 18.91s-5.03 18.99-12.5 18.99zm96.48-18.74c0-20.77-10.06-37.16-29.29-37.16s-31 16.39-31 37c0 24.42 13.79 36.76 33.59 36.76 9.66 0 16.96-2.19 22.48-5.27v-16.23c-5.52 2.76-11.85 4.46-19.88 4.46s-14.85-2.76-15.74-12.33h39.68c0-1.05.16-5.27.16-7.22zm-40.08-7.71c0-9.17 5.6-12.98 10.71-12.98s10.22 3.81 10.22 12.98z"/><path fill="#fff" d="M410.44 243.68c0 7.55-6.12 13.68-13.68 13.68H13.68C6.12 257.36 0 251.24 0 243.68V14.51C0 6.95 6.13.83 13.68.83h383.08c7.56 0 13.68 6.12 13.68 13.68z"/><path fill="#195C9C" d="M188.88 167.62h-20.05l12.53-77.01h20.06zm-36.92-77.01-19.11 52.97-2.26-11.4-6.75-34.63s-.81-6.93-9.51-6.93h-31.6l-.37 1.31s9.66 2.01 20.98 8.8l17.42 66.9h20.89l31.9-77.01h-21.58zm157.71 77.01h18.41l-16.05-77.01h-16.12c-7.44 0-9.26 5.74-9.26 5.74l-29.9 71.27h20.9l4.18-11.44h25.49zm-22.06-27.24 10.53-28.83 5.93 28.83zm-29.29-31.25 2.86-16.54s-8.83-3.36-18.03-3.36c-9.95 0-33.58 4.35-33.58 25.49 0 19.9 27.74 20.15 27.74 30.59s-24.88 8.58-33.09 1.99l-2.98 17.29s8.95 4.35 22.63 4.35 34.33-7.09 34.33-26.36-27.98-21.89-27.98-30.59 19.53-7.59 28.11-2.86z"/><path fill="#F9A533" d="m130.58 132.18-6.75-34.63s-.81-6.93-9.51-6.93h-31.6l-.37 1.31s15.19 3.15 29.76 14.94c13.93 11.27 18.47 25.32 18.47 25.32z"/><path fill="#fff" d="M499.96 0h385.55c7.6 0 13.77 6.17 13.77 13.77v230.64c0 7.6-6.17 13.77-13.77 13.77H499.96c-7.6 0-13.77-6.17-13.77-13.77V13.77c0-7.6 6.17-13.77 13.77-13.77"/><path fill="#FBB231" fill-rule="evenodd" d="m742.32 203.2 3.82-.1 3.77-.27 3.71-.47 3.67-.66 3.57-.82 3.53-1 3.45-1.18 3.37-1.32 3.3-1.5 3.2-1.62 3.1-1.81 3.03-1.92 2.9-2.07 2.8-2.2 2.7-2.33 2.57-2.47 2.48-2.58 2.32-2.7 2.2-2.8 2.08-2.9 1.92-3.02 1.8-3.11 1.63-3.2 1.5-3.29 1.32-3.38 1.17-3.45 1.01-3.52.82-3.58.65-3.67.48-3.7.27-3.78.1-3.82-.1-3.8-.27-3.75-.48-3.7-.65-3.63-.82-3.57-1.01-3.5-1.17-3.45-1.32-3.35-1.5-3.28-1.63-3.2-1.8-3.07-1.92-3.03-2.08-2.9-2.2-2.77-2.32-2.7-2.48-2.58-2.57-2.45-2.7-2.32-2.8-2.2-2.9-2.08-3.03-1.92-3.1-1.78-3.2-1.62-3.3-1.5-3.37-1.33-3.45-1.17-3.53-1-3.57-.83-3.67-.64-3.71-.48-3.77-.28-3.82-.1-3.81.1-3.77.28-3.7.48-3.65.64-3.58.83-3.52 1-3.43 1.17-3.37 1.33-3.28 1.5-3.17 1.62-3.1 1.78-3 1.92-2.9 2.08-2.8 2.2-2.67 2.32-2.58 2.45-2.45 2.58-2.33 2.7-2.2 2.77-2.04 2.9-1.93 3.03-1.78 3.07-1.64 3.2-1.48 3.28-1.33 3.35-1.14 3.45-1.01 3.5-.82 3.57-.65 3.63-.47 3.7-.28 3.75-.1 3.8.1 3.82.28 3.78.47 3.7.65 3.67.82 3.58 1.01 3.52 1.14 3.45 1.33 3.38 1.48 3.29 1.64 3.2 1.78 3.11 1.93 3.02 2.04 2.9 2.2 2.8 2.33 2.7 2.45 2.58 2.58 2.47 2.67 2.33 2.8 2.2 2.9 2.07 3 1.92 3.1 1.81 3.17 1.62 3.28 1.5 3.37 1.32 3.43 1.18 3.52 1 3.58.82 3.65.66 3.7.47 3.77.27z" clip-rule="evenodd"/><path fill="#EC1C2E" fill-rule="evenodd" d="m643.17 203.2 3.79-.1 3.78-.27 3.7-.47 3.65-.66 3.58-.82 3.52-1 3.43-1.18 3.37-1.32 3.27-1.5 3.18-1.62 3.1-1.81 3-1.92 2.9-2.07 2.8-2.2 2.67-2.33 2.58-2.47 2.45-2.58 2.32-2.7 2.2-2.8 2.05-2.9 1.93-3.02 1.78-3.11 1.64-3.2 1.48-3.29 1.32-3.38 1.15-3.45 1-3.52.83-3.58.65-3.67.47-3.7.28-3.78.1-3.82-.1-3.8-.28-3.75-.47-3.7-.65-3.63-.83-3.57-1-3.5-1.15-3.45-1.32-3.35-1.48-3.28-1.64-3.2-1.78-3.07-1.93-3.03-2.05-2.9-2.2-2.77-2.32-2.7-2.45-2.58-2.58-2.45-2.67-2.32-2.8-2.2-2.9-2.08-3-1.92-3.1-1.78-3.18-1.62-3.27-1.5-3.37-1.33-3.43-1.17-3.52-1-3.58-.83-3.65-.64-3.7-.48-3.78-.28-3.79-.1-3.83.1-3.77.28-3.7.48-3.68.64-3.58.83-3.52 1-3.45 1.17-3.37 1.33-3.3 1.5-3.21 1.62-3.09 1.78-3.03 1.92-2.9 2.08-2.8 2.2-2.7 2.32-2.57 2.45-2.48 2.58-2.32 2.7-2.2 2.77-2.08 2.9-1.92 3.03-1.81 3.07-1.62 3.2-1.5 3.28-1.32 3.35-1.18 3.45-1 3.5-.82 3.57-.65 3.63-.48 3.7-.27 3.75-.1 3.8.1 3.82.27 3.78.48 3.7.65 3.67.82 3.58 1 3.52 1.18 3.45 1.32 3.38 1.5 3.29 1.62 3.2 1.81 3.11 1.92 3.02 2.08 2.9 2.2 2.8 2.32 2.7 2.48 2.58 2.57 2.47 2.7 2.33 2.8 2.2 2.9 2.07 3.03 1.92 3.09 1.81 3.21 1.62 3.3 1.5 3.37 1.32 3.45 1.18 3.52 1 3.58.82 3.68.66 3.7.47 3.77.27z" clip-rule="evenodd"/><path fill="#FBB231" fill-rule="evenodd" d="M684.07 83.41h39.37v-4.03h-35.97zm-5.91 8.95h45.28v-4.03h-42.9zm-4.39 8.92h49.67v-4.02h-47.92zm-3.03 8.95h52.7v-4.02h-51.45zm1.75 43.25h51.07v-4.02h-52.32zm3.77 8.95h47.3v-4.02h-49.17zm5.3 8.93h42v-4.03h-44.52zm7.31 8.94h34.69v-4.05h-38.22zm-19.9-61.14h54.47v-4.03h-53.7zm33.19 25.4h20.78v-4.03h-20.02zm1.66-8.93h19.12v-4.05h-18.38zm-36.23-4.05h5.4v4.05h-5.15z" clip-rule="evenodd"/><path fill="#fff" fill-rule="evenodd" d="m657.51 126.7-.35-.02-.34-.05-.33-.05-.32-.05-.31-.05-.32-.05-.32-.05-.36-.05-.34-.05-.4-.02-.45-.03-.48-.03h-.53l-.57.03-.65.05-.72.05-.5.08-.48.07-.43.15-.37.15-.35.18-.32.2-.26.25-.22.22-.15.28-.12.27-.06.3v.3l.08.33.1.32.2.33.25.32.5.47.6.38.7.32.75.28.8.25.82.28.83.3.8.32.75.42.7.53.62.63.53.77.4.95.25 1.13.1 1.35-.1 1.57-.17 1.18-.3 1.02-.41.95-.49.82-.58.73-.65.63-.7.55-.77.47-.81.38-.82.32-.85.25-.87.2-.86.15-.82.08-.82.05-.78.02h-1.08l-1-.02h-.87l-.82-.03-.76-.02-.67-.06-.6-.04-.57-.08-.53-.05-.47-.1-.48-.08-.42-.12-.43-.1-.4-.15-.4-.15-.43-.15 1.13-5.52.23.05.27.07.35.1.43.1.44.1.51.1.55.12.59.11.63.09.65.11.67.07.71.08.72.02.73.03h.72l.72-.03.73-.15.58-.2.44-.27.36-.35.24-.35.21-.41.12-.39.1-.38.05-.72-.22-.63-.43-.5-.62-.43-.76-.37-.87-.37-.97-.36-.98-.39-1-.45-.95-.53-.87-.65-.81-.77-.62-.96-.45-1.12-.23-1.35.03-1.6.12-.97.18-.93.25-.85.3-.8.4-.75.45-.65.53-.63.62-.54.73-.48.8-.4.89-.37 1-.28 1.13-.23 1.23-.17 1.34-.1 1.48-.03h.92l.85.03.78.03.7.02.63.05.57.05.5.05.45.05.42.05.36.08.32.05.3.05.25.04.23.03.22.05.2.03z" clip-rule="evenodd"/><path stroke="#fff" stroke-miterlimit="2.61" stroke-width=".22" d="m657.51 126.7-.35-.02-.34-.05-.33-.05-.32-.05-.31-.05-.32-.05-.32-.05-.36-.05-.34-.05-.4-.02-.45-.03-.48-.03h-.53l-.57.03-.65.05-.72.05-.5.08-.48.07-.43.15-.37.15-.35.18-.32.2-.26.25-.22.22-.15.28-.12.27-.06.3v.3l.08.33.1.32.2.33.25.32.5.47.6.38.7.32.75.28.8.25.82.28.83.3.8.32.75.42.7.53.62.63.53.77.4.95.25 1.13.1 1.35-.1 1.57-.17 1.18-.3 1.02-.41.95-.49.82-.58.73-.65.63-.7.55-.77.47-.81.38-.82.32-.85.25-.87.2-.86.15-.82.08-.82.05-.78.02h-1.08l-1-.02h-.87l-.82-.03-.76-.02-.67-.06-.6-.04-.57-.08-.53-.05-.47-.1-.48-.08-.42-.12-.43-.1-.4-.15-.4-.15-.43-.15 1.13-5.52.23.05.27.07.35.1.43.1.44.1.51.1.55.12.59.11.63.09.65.11.67.07.71.08.72.02.73.03h.72l.72-.03.73-.15.58-.2.44-.27.36-.35.24-.35.21-.41.12-.39.1-.38.05-.72-.22-.63-.43-.5-.62-.43-.76-.37-.87-.37-.97-.36-.98-.39-1-.45-.95-.53-.87-.65-.81-.77-.62-.96-.45-1.12-.23-1.35.03-1.6.12-.97.18-.93.25-.85.3-.8.4-.75.45-.65.53-.63.62-.54.73-.48.8-.4.89-.37 1-.28 1.13-.23 1.23-.17 1.34-.1 1.48-.03h.92l.85.03.78.03.7.02.63.05.57.05.5.05.45.05.42.05.36.08.32.05.3.05.25.04.23.03.22.05.2.03z"/><path fill="#fff" fill-rule="evenodd" d="M663.44 114.88h6.93l-1.03 6.05h4.18l-.9 5.65-4.41-.12-2.39 13.94-.03.51.12.42.25.33.33.27.45.18.5.15.55.09.6.06.55-.03.5-.05.45-.07.4-.1.33-.1.22-.08.15-.05.05-.02-.87 4.65-.18.12-.18.1-.17.1-.17.1-.18.07-.2.08-.22.07-.23.08-.25.07-.25.06-.3.05-.3.05-.32.05-.38.05-.4.05-.43.04h-1.9l-1-.07-.87-.1-.8-.15-.67-.18-.58-.22-.48-.25-.42-.3-.33-.33-.25-.34-.17-.43-.13-.43-.07-.47-.03-.53v-.54l.08-.58.08-.62z" clip-rule="evenodd"/><path stroke="#fff" stroke-miterlimit="2.61" stroke-width=".22" d="M663.44 114.88h6.93l-1.03 6.05h4.18l-.9 5.65-4.41-.12-2.39 13.94-.03.51.12.42.25.33.33.27.45.18.5.15.55.09.6.06.55-.03.5-.05.45-.07.4-.1.33-.1.22-.08.15-.05.05-.02-.87 4.65-.18.12-.18.1-.17.1-.17.1-.18.07-.2.08-.22.07-.23.08-.25.07-.25.06-.3.05-.3.05-.32.05-.38.05-.4.05-.43.04h-1.9l-1-.07-.87-.1-.8-.15-.67-.18-.58-.22-.48-.25-.42-.3-.33-.33-.25-.34-.17-.43-.13-.43-.07-.47-.03-.53v-.54l.08-.58.08-.62z"/><path stroke="#fff" stroke-miterlimit="2.61" stroke-width=".22" d="m679.04 136.01-.08.42-.02.45.05.47.1.48.17.48.21.45.27.47.3.42.35.43.37.38.41.37.44.3.46.28.49.22.5.17.5.11.65.09.63.08.65.08.65.05.65.02h.68l.64-.02.68-.05.67-.1.68-.13.7-.15.67-.22.71-.28.72-.3.7-.4.72-.42-1 6.15-.4.2-.39.2-.41.14-.37.16-.37.12-.41.13-.4.09-.42.08-.45.08-.5.05-.52.05-.58.05-.65.02h-.67l-.78.02h-.83l-1.22-.02-1.25-.12-1.25-.18-1.25-.3-1.22-.37-1.18-.48-1.13-.62-1.05-.73-.97-.85-.85-1.02-.72-1.16-.61-1.32-.42-1.47-.27-1.68-.08-1.85.13-2.05.1-.8.14-.93.21-.97.27-1.05.38-1.07.44-1.08.58-1.1.7-1.05.8-1 .97-.95 1.1-.85 1.25-.75 1.45-.62 1.63-.45 1.8-.3 2.02-.11.98.03 1.02.1 1.03.17 1.03.25.99.38.98.45.9.6.83.7.74.85.63 1 .5 1.15.35 1.33.2 1.49.03 1.7-.18 1.9-.38 2.11-.12 1.52h-18.22l1.14-4.93h10.95l.06-.62-.03-.6-.05-.55-.1-.5-.18-.47-.17-.43-.25-.37-.25-.35-.3-.3-.33-.25-.37-.23-.38-.2-.4-.15-.4-.1-.42-.07-.45-.05-.48.02-.45.08-.42.1-.42.15-.43.2-.37.22-.38.28-.32.3-.33.35-.3.37-.27.4-.23.43-.23.45-.17.5-.15.5-.1.52z"/><path fill="#fff" fill-rule="evenodd" d="m738.66 122.43-.32-.17-.32-.15-.36-.18-.37-.17-.38-.15-.42-.15-.43-.16-.44-.14-.48-.13-.48-.1-.52-.1-.52-.07-.58-.06-.57-.04h-1.86l-.65.04-.67.08-.7.13-.7.2-.7.27-.7.35-.7.45-.68.55-.65.65-.63.8-.59.93-.55 1.09-.53 1.25-.47 1.41-.4 1.6-.16.89-.09.88-.05.87.03.86.07.85.17.8.23.75.27.75.38.67.45.65.53.58.59.52.68.45.77.38.85.32.95.23.33.07.38.07.45.06.5.05.54.05h1.2l.63-.05.65-.08.65-.12.62-.18.63-.2.62-.28.58-.32.52-.4.5-.45-1.12 6.68-.15.12-.15.15-.2.18-.22.14-.28.2-.35.18-.4.18-.45.14-.58.18-.65.13-.74.1-.88.1-.97.05-1.13.02-1.27-.02-1.41-.08-1.15-.12-1.15-.26-1.15-.37-1.14-.5-1.11-.6-1.05-.75-1-.87-.92-1-.83-1.13-.7-1.25-.6-1.4-.44-1.52-.3-1.68-.11-1.77.05-1.95.28-2.08.2-1.02.22-1 .25-.98.26-.92.26-.88.33-.87.33-.83.35-.77.38-.78.37-.72.42-.7.45-.65.45-.63.5-.6.5-.55.53-.52.57-.5.58-.48.6-.42.63-.4.67-.38.67-.32.7-.3.73-.28.78-.25.77-.2.8-.18.85-.14.85-.13.9-.1.9-.04.95-.04.8.04.77.04.75.08.75.1.7.1.68.15.65.12.6.15.57.15.51.15.47.15.4.15.35.12.3.11.22.1.16.05z" clip-rule="evenodd"/><path stroke="#fff" stroke-miterlimit="2.61" stroke-width=".22" d="m738.66 122.43-.32-.17-.32-.15-.36-.18-.37-.17-.38-.15-.42-.15-.43-.16-.44-.14-.48-.13-.48-.1-.52-.1-.52-.07-.58-.06-.57-.04h-1.86l-.65.04-.67.08-.7.13-.7.2-.7.27-.7.35-.7.45-.68.55-.65.65-.63.8-.59.93-.55 1.09-.53 1.25-.47 1.41-.4 1.6-.16.89-.09.88-.05.87.03.86.07.85.17.8.23.75.27.75.38.67.45.65.53.58.59.52.68.45.77.38.85.32.95.23.33.07.38.07.45.06.5.05.54.05h1.2l.63-.05.65-.08.65-.12.62-.18.63-.2.62-.28.58-.32.52-.4.5-.45-1.12 6.68-.15.12-.15.15-.2.18-.22.14-.28.2-.35.18-.4.18-.45.14-.58.18-.65.13-.74.1-.88.1-.97.05-1.13.02-1.27-.02-1.41-.08-1.15-.12-1.15-.26-1.15-.37-1.14-.5-1.11-.6-1.05-.75-1-.87-.92-1-.83-1.13-.7-1.25-.6-1.4-.44-1.52-.3-1.68-.11-1.77.05-1.95.28-2.08.2-1.02.22-1 .25-.98.26-.92.26-.88.33-.87.33-.83.35-.77.38-.78.37-.72.42-.7.45-.65.45-.63.5-.6.5-.55.53-.52.57-.5.58-.48.6-.42.63-.4.67-.38.67-.32.7-.3.73-.28.78-.25.77-.2.8-.18.85-.14.85-.13.9-.1.9-.04.95-.04.8.04.77.04.75.08.75.1.7.1.68.15.65.12.6.15.57.15.51.15.47.15.4.15.35.12.3.11.22.1.16.05z"/><path fill="#fff" fill-rule="evenodd" d="M800.21 147.7h-6.92l.5-2.77v-.25l-.4.5-.43.45-.42.4-.45.35-.45.33-.45.27-.45.22-.48.23-.47.18-.48.12-.47.12-.51.08-.49.08-.48.05-.5.02h-.49l-1.3-.1-1.21-.28-1.1-.42-1-.57-.9-.73-.8-.85-.7-.93-.6-1.04-.49-1.13-.41-1.17-.27-1.23-.2-1.27-.08-1.28.03-1.3.12-1.27.23-1.28.37-1.48.45-1.39.53-1.28.62-1.2.65-1.12.75-1.01.77-.89.83-.83.88-.72.92-.63.95-.55.96-.42.99-.36 1-.22 1-.15 1.03-.05.72.02.7.08.65.13.6.17.58.2.5.23.5.27.45.28.4.29.37.33.33.33.3.32.25.33.22.32.2.3.15.3 1.76-9.82h6.79z" clip-rule="evenodd"/><path stroke="#fff" stroke-miterlimit="2.61" stroke-width=".22" d="M800.21 147.7h-6.92l.5-2.77v-.25l-.4.5-.43.45-.42.4-.45.35-.45.33-.45.27-.45.22-.48.23-.47.18-.48.12-.47.12-.51.08-.49.08-.48.05-.5.02h-.49l-1.3-.1-1.21-.28-1.1-.42-1-.57-.9-.73-.8-.85-.7-.93-.6-1.04-.49-1.13-.41-1.17-.27-1.23-.2-1.27-.08-1.28.03-1.3.12-1.27.23-1.28.37-1.48.45-1.39.53-1.28.62-1.2.65-1.12.75-1.01.77-.89.83-.83.88-.72.92-.63.95-.55.96-.42.99-.36 1-.22 1-.15 1.03-.05.72.02.7.08.65.13.6.17.58.2.5.23.5.27.45.28.4.29.37.33.33.33.3.32.25.33.22.32.2.3.15.3 1.76-9.82h6.79z"/><path fill="#FBB231" fill-rule="evenodd" d="m788.89 141.66.7-.05.65-.15.6-.18.57-.27.53-.3.5-.38.47-.42.43-.46.37-.5.35-.55.33-.57.27-.6.25-.63.2-.64.18-.68.12-.67.13-.7.07-.73v-.68l-.02-.69-.08-.65-.1-.63-.17-.6-.2-.57-.25-.5-.3-.48-.32-.4-.38-.35-.43-.3-.45-.2-.47-.12-.52-.05-.68.05-.63.1-.57.2-.58.25-.5.32-.5.4-.42.43-.43.47-.37.55-.35.58-.33.6-.27.64-.25.68-.2.68-.2.72-.15.73-.13 1.1.05 1.2.18 1.22.33 1.18.49 1.02.65.83.83.55z" clip-rule="evenodd"/><path fill="#fff" fill-rule="evenodd" d="m635.37 142.16-1.01 5.54h-6.3l.18-1.02.13-.92.09-.7.11-.38-.35.4-.41.4-.47.38-.53.34-.59.36-.63.29-.65.31-.68.25-.72.22-.72.18-.73.15-.75.1-.73.05-.72.02-.7-.07-.68-.1-.87-.23-.8-.25-.7-.32-.63-.38-.54-.4-.5-.45-.4-.48-.36-.49-.29-.53-.26-.55-.19-.55-.15-.55-.11-.57-.07-.58-.05-.55v-.55l.07-.98.16-.92.25-.87.32-.86.4-.79.45-.73.52-.7.61-.62.62-.58.7-.53.73-.47.74-.4.8-.35.83-.27.85-.23.88-.15h.04l.13-.03.18-.02.27-.02.3-.05.35-.03.37-.05.43-.05.42-.05.43-.05.45-.02.4-.05.4-.03.37-.03.36-.02h.85l.6.02.54.03h.55l.45.03.36.02.24.03h.08l.05-.18.15-.45.12-.53.05-.47-.1-.55-.22-.5-.3-.45-.4-.38-.48-.32-.52-.22-.6-.15-.65-.05-.7-.03-.75-.02h-.78l-.79.02-.83.05-.8.08-.8.07-.77.1-.76.1-.72.13-.65.12-.6.12-.55.16-.45.15-.35.17-.28.15 1.78-6.02.55-.23.55-.2.6-.17.6-.13.6-.13.65-.09.65-.1.68-.06.69-.04.73-.03.75-.03h2.4l.88.03.87.03.7.04.75.13.77.18.8.22.78.3.75.35.75.43.7.47.62.55.56.6.5.67.37.76.25.8.15.85v.95l-.15 1z" clip-rule="evenodd"/><path stroke="#fff" stroke-miterlimit="2.61" stroke-width=".22" d="m635.37 142.16-1.01 5.54h-6.3l.18-1.02.13-.92.09-.7.11-.38-.35.4-.41.4-.47.38-.53.34-.59.36-.63.29-.65.31-.68.25-.72.22-.72.18-.73.15-.75.1-.73.05-.72.02-.7-.07-.68-.1-.87-.23-.8-.25-.7-.32-.63-.38-.54-.4-.5-.45-.4-.48-.36-.49-.29-.53-.26-.55-.19-.55-.15-.55-.11-.57-.07-.58-.05-.55v-.55l.07-.98.16-.92.25-.87.32-.86.4-.79.45-.73.52-.7.61-.62.62-.58.7-.53.73-.47.74-.4.8-.35.83-.27.85-.23.88-.15h.04l.13-.03.18-.02.27-.02.3-.05.35-.03.37-.05.43-.05.42-.05.43-.05.45-.02.4-.05.4-.03.37-.03.36-.02h.85l.6.02.54.03h.55l.45.03.36.02.24.03h.08l.05-.18.15-.45.12-.53.05-.47-.1-.55-.22-.5-.3-.45-.4-.38-.48-.32-.52-.22-.6-.15-.65-.05-.7-.03-.75-.02h-.78l-.79.02-.83.05-.8.08-.8.07-.77.1-.76.1-.72.13-.65.12-.6.12-.55.16-.45.15-.35.17-.28.15 1.78-6.02.55-.23.55-.2.6-.17.6-.13.6-.13.65-.09.65-.1.68-.06.69-.04.73-.03.75-.03h2.4l.88.03.87.03.7.04.75.13.77.18.8.22.78.3.75.35.75.43.7.47.62.55.56.6.5.67.37.76.25.8.15.85v.95l-.15 1z"/><path fill="#EC1C2E" fill-rule="evenodd" d="m629.34 135.63-.03-.12-.1-.13-.15-.08-.24-.04-.28-.05-.32-.03h-.76l-.39.03-.43.05-.4.04-.4.06-.37.05-.36.07-.29.08-.28.07-.17.05-.2.08-.28.1-.28.12-.32.15-.33.18-.34.17-.33.2-.35.25-.32.25-.31.3-.27.3-.25.32-.18.36-.14.4-.08.4-.02.85.12.67.25.5.33.38.37.25.43.15.4.07.4.03.74-.03.68-.07.65-.11.58-.15.49-.17.48-.22.42-.23.38-.27.33-.25.29-.3.25-.28.21-.3.17-.3.15-.3.13-.27.07-.28.2-.72.17-.83.15-.8z" clip-rule="evenodd"/><path fill="#fff" fill-rule="evenodd" d="M582.76 147.7h-6.79l5.67-32.82h11.82l1.13 19.48 8.18-19.48h12.35l-5.81 32.82h-6.79l4.3-24.52h-.28l-10.18 24.52h-7.67l-.05-1.02-.17-2.72-.23-3.88-.25-4.45-.25-4.47-.22-3.92-.18-2.86-.05-1.2h-.37z" clip-rule="evenodd"/><path stroke="#fff" stroke-miterlimit="2.61" stroke-width=".22" d="M582.76 147.7h-6.79l5.67-32.82h11.82l1.13 19.48 8.18-19.48h12.35l-5.81 32.82h-6.79l4.3-24.52h-.28l-10.18 24.52h-7.67l-.05-1.02-.17-2.72-.23-3.88-.25-4.45-.25-4.47-.22-3.92-.18-2.86-.05-1.2h-.37z"/><path fill="#fff" fill-rule="evenodd" d="m759.44 142.16-1.02 5.54h-6.28l.05-1.02.02-.9v-.67l.05-.3-.32.37-.38.38-.45.35-.5.35-.52.32-.6.3-.63.3-.62.25-.68.2-.7.2-.69.13-.7.1-.73.05-.7.02-.68-.07-.67-.1-.9-.23-.8-.25-.7-.32-.66-.38-.54-.4-.48-.45-.4-.48-.34-.49-.3-.53-.23-.55-.2-.55-.12-.55-.11-.57-.07-.58-.06-.55v-.55l.06-.98.15-.92.22-.87.33-.86.37-.79.48-.73.52-.7.58-.62.65-.58.67-.53.73-.47.78-.4.77-.35.82-.27.83-.23.85-.15h.05l.12-.03.18-.02.25-.02.32-.05.35-.03.38-.05.39-.05.43-.05.45-.05.43-.02.42-.05.4-.03.35-.03.35-.02h.88l.6.02.57.03h.55l.48.03.4.02.22.03h.11l.05-.18.07-.45.07-.53.05-.47-.1-.55-.19-.5-.33-.45-.38-.38-.45-.32-.52-.22-.55-.15-.6-.05-.7-.03-.75-.02h-.78l-.8.02-.82.05-.8.08-.8.07-.78.1-.75.1-.72.13-.65.12-.6.12-.55.16-.45.15-.35.17-.28.15 1.75-6.02.55-.23.58-.2.57-.17.6-.13.63-.13.63-.09.64-.1.68-.06.7-.04.72-.03.73-.03h2.35l.85.03.85.03.7.04.75.13.77.18.8.22.78.3.77.35.75.43.7.47.63.55.57.6.5.67.38.76.27.8.18.85v.95l-.13 1z" clip-rule="evenodd"/><path fill="#fff" fill-rule="evenodd" d="m758.42 147.88.14-.15 1.03-5.55-.3-.05-1.03 5.55.16-.15zl.12-.03.02-.12z" clip-rule="evenodd"/><path fill="#fff" fill-rule="evenodd" d="m751.99 147.7.15.18h6.28v-.35h-6.28l.15.17zl-.02.18h.17z" clip-rule="evenodd"/><path fill="#fff" fill-rule="evenodd" d="m752.39 144.9-.23-.19-.1.4-.03.67v.9l-.04 1.02h.3l.05-1.02.05-.9-.03-.67v-.21l-.22-.19z" clip-rule="evenodd"/><path fill="#fff" fill-rule="evenodd" d="m742.66 148.11.7.1.68.07.7-.02.73-.05.72-.1.7-.13.7-.2.7-.2.62-.25.65-.3.61-.3.52-.35.52-.35.45-.35.4-.4.33-.38-.25-.19-.33.37-.35.35-.45.35-.47.35-.53.3-.59.3-.61.3-.62.25-.65.2-.7.2-.7.13-.67.09-.73.06-.7.02-.68-.08-.64-.09z" clip-rule="evenodd"/><path fill="#fff" fill-rule="evenodd" d="m736.61 140.53.03.55.05.55.08.6.1.58.12.55.2.57.22.58.33.52.35.53.4.47.5.48.57.4.65.4.73.32.82.25.9.23.06-.3-.91-.23-.77-.25-.68-.32-.65-.36-.52-.39-.45-.43-.4-.47-.35-.48-.28-.52-.22-.53-.2-.52-.13-.55-.09-.58-.08-.55-.05-.55.02-.55zm8.98-9.6-.88.15-.84.23-.83.27-.8.35-.78.4-.74.5-.68.53-.65.6-.6.62-.53.7-.5.75-.37.83-.32.85-.23.89-.15.95-.08.98h.35l.03-.98.15-.89.22-.85.33-.85.37-.78.45-.7.53-.7.55-.62.65-.55.67-.53.7-.45.78-.4.75-.35.82-.27.8-.23.83-.15zm5.15-.53h-.28l-.35.06-.35.03-.4.02-.42.04-.43.03-.45.05-.43.05-.39.05-.38.05-.35.03-.32.05-.25.02-.2.03-.1.02h-.05v.3h.05l.15-.03.15-.02.25-.02.32-.05.35-.03.38-.05.39-.05.43-.05.45-.05.43-.02.42-.05.4-.03.35-.02h.63z" clip-rule="evenodd"/><path fill="#fff" fill-rule="evenodd" d="m754.11 130.68.16-.13h-.11l-.22-.02-.4-.02-.48-.05h-1.12l-.6-.06h-.6v.36h1.2l.57.05h1.03l.4.02.22.03h.11l.14-.13-.14.13.12.02.02-.15z" clip-rule="evenodd"/><path fill="#fff" fill-rule="evenodd" d="M754.36 129.08h-.02l-.02.47-.08.51-.08.45-.05.17.3.05.05-.18.08-.45.07-.55.08-.47zm-2.97-2.47v.02l.58.03.52.15.5.22.42.3.35.35.3.43.21.45.09.52h.3l-.1-.57-.2-.55-.35-.48-.39-.4-.48-.35-.55-.22-.58-.15-.62-.08z" clip-rule="evenodd"/><path fill="#fff" fill-rule="evenodd" d="m740.66 127.81.25.15.25-.13.33-.17.43-.15.54-.15.61-.12.64-.13.73-.13.72-.1.78-.1.8-.08.8-.07.82-.05h2.33l.7.03v-.3l-.7-.03-.75-.05h-.78l-.8.05-.82.05-.8.08-.8.07-.78.1-.77.1-.73.13-.65.12-.6.13-.55.14-.47.16-.38.17-.29.18.24.15z" clip-rule="evenodd"/><path fill="#fff" fill-rule="evenodd" d="m742.52 121.66-.11.12-1.75 6.03.3.05 1.76-6.03-.11.13zl-.08.02-.03.1z" clip-rule="evenodd"/><path fill="#fff" fill-rule="evenodd" d="m753.64 120.51-.85-.05-.85-.03h-2.35l-.73.05-.72.03-.7.05-.68.04-.67.1-.62.11-.63.12-.6.13-.6.17-.57.2-.55.23.09.3.56-.23.57-.2.55-.18.6-.12.63-.12.62-.1.62-.1.68-.05.7-.05.72-.03h3.08l.85.03h.85zm8.57 8.47.13-1.02v-.95l-.17-.88-.28-.82-.4-.78-.51-.7-.59-.62-.63-.55-.72-.48-.75-.45-.8-.35-.78-.3-.82-.22-.78-.18-.77-.12-.7-.05v.3l.7.05.72.12.78.18.77.22.78.3.75.35.75.4.67.48.63.54.55.58.5.65.35.73.27.77.18.83v.95l-.13.97zm-2.62 13.2 2.62-13.2-.3-.05-2.62 13.2z" clip-rule="evenodd"/><path fill="#FBB231" fill-rule="evenodd" d="m753.39 135.63-.05-.15-.1-.12-.18-.08-.25-.07-.27-.03-.33-.03h-.37l-.38.03-.4.05-.4.05-.4.05-.38.05-.36.08-.33.05-.33.07-.25.05-.17.03-.2.07-.25.08-.28.1-.32.14-.3.16-.35.17-.33.22-.32.23-.33.28-.27.27-.28.33-.22.34-.18.38-.15.4-.07.43-.02.85.11.67.21.5.3.38.37.25.43.15.42.07.43.03.75-.03.7-.07.65-.13.58-.17.54-.2.48-.23.45-.25.4-.3.35-.27.29-.33.28-.3.23-.33.17-.29.13-.31.1-.29.07-.28.1-.7.13-.72.1-.7z" clip-rule="evenodd"/><path fill="#fff" fill-rule="evenodd" d="m804.88 144.28.06-.57.19-.68.36-.6.42-.52.53-.43.6-.3.65-.2.7-.07.7.07.65.2.6.3.53.43.42.52.35.6.2.68.05.57h-.75l-.02-.45-.16-.55-.25-.5-.32-.43-.4-.35-.48-.24-.55-.18-.57-.05-.58.05-.54.18-.48.24-.4.35-.33.43-.25.5-.15.55-.05.45z" clip-rule="evenodd"/><path fill="#fff" fill-rule="evenodd" d="M807.14 144.28v-1.5h1.37l.3.03.28.05.2.07.17.1.13.15.1.15.05.17.02.18-.02.22-.05.18-.08.15-.05.05h-1.05l.1-.02.18-.03.15-.05.12-.05.1-.07.05-.08.05-.12v-.18l-.02-.12-.05-.11-.08-.04-.07-.05-.13-.03-.12-.02h-1.03v.97z" clip-rule="evenodd"/><path fill="#fff" fill-rule="evenodd" d="m804.88 144.28-.02.15.08.73.19.67.36.6.42.5.53.42.6.33.65.2.7.08.7-.08.65-.2.6-.33.53-.42.42-.5.35-.6.2-.67.07-.73-.02-.15h-.75l.02.15-.04.6-.16.55-.25.48-.32.42-.4.35-.48.27-.55.18-.57.05-.58-.05-.54-.18-.48-.27-.4-.35-.33-.42-.25-.48-.15-.55-.05-.6v-.15z" clip-rule="evenodd"/><path fill="#fff" fill-rule="evenodd" d="M807.14 144.28v1.53h.62v-1.25h.63l.74 1.25h.51l-.75-1.25h.17l.18-.05.15-.06.12-.09.05-.08h-1.05l-.12.03h-.63v-.03z" clip-rule="evenodd"/><path stroke="#fff" stroke-miterlimit="2.61" stroke-width=".22" d="M807.76 145.81h-.63v-3.02h1.37l.3.02.27.05.2.08.18.1.13.15.1.15.05.17.03.18-.03.22-.05.18-.07.15-.1.13-.13.1-.15.05-.17.05h-.18l.75 1.25h-.5l-.75-1.25h-.62v1.25m.62-1.5.22-.05.18-.02.15-.05.13-.05.1-.07.05-.08.05-.12v-.18l-.03-.13-.05-.1-.07-.05-.08-.05-.13-.02-.12-.02h-1.02v1h.62m-3.52.1.08-.73.19-.68.35-.6.42-.52.53-.42.6-.3.65-.2.7-.07.7.07.65.2.6.3.53.42.42.52.35.6.2.68.07.73-.07.73-.2.67-.35.6-.42.5-.53.42-.6.33-.65.2-.7.08-.7-.08-.65-.2-.6-.33-.53-.42-.42-.5-.35-.6-.19-.67zm3.52 2.92.58-.05.55-.18.48-.27.4-.35.32-.42.25-.48.15-.55.05-.6-.05-.6-.15-.55-.25-.5-.32-.43-.4-.35-.48-.25-.55-.18-.58-.05-.57.05-.55.18-.48.25-.4.35-.32.43-.25.5-.15.55-.05.6.05.6.15.55.25.48.32.42.4.35.48.27.55.18z"/><path fill="#fff" fill-rule="evenodd" d="M761.32 147.7h7.05l2.52-14.22.1-.55.15-.55.15-.55.2-.55.25-.55.3-.52.32-.5.41-.48.45-.42.49-.4.58-.38.65-.3.72-.25.8-.2.88-.15.97-.05h.63l1.12-6.42-.7.04-.67.08-.63.13-.6.17-.55.2-.52.25-.5.28-.48.3-.45.35-.42.35-.4.4-.4.4-.38.42-.37.47-.38.46-.34.5.75-4.53h-7.03z" clip-rule="evenodd"/><path stroke="#fff" stroke-miterlimit="2.61" stroke-width=".22" d="M761.32 147.7h7.05l2.52-14.22.1-.55.15-.55.15-.55.2-.55.25-.55.3-.52.32-.5.41-.48.45-.42.49-.4.58-.38.65-.3.72-.25.8-.2.88-.15.97-.05h.63l1.12-6.42-.7.04-.67.08-.63.13-.6.17-.55.2-.52.25-.5.28-.48.3-.45.35-.42.35-.4.4-.4.4-.38.42-.37.47-.38.46-.34.5.75-4.53h-7.03z"/><path fill="#fff" fill-rule="evenodd" d="M695.12 147.7h7.17l2.4-14.22.1-.55.12-.52.13-.53.17-.5.2-.5.25-.48.3-.44.35-.43.4-.38.45-.37.56-.3.59-.27.7-.23.78-.2.85-.12.97-.08h.08l.1.03.12.02h.13l.12.03.11.02.07.03h.02l.03-.1.07-.3.1-.45.13-.55.17-.65.18-.7.23-.7.22-.71.2-.47.25-.48.25-.47.25-.42.22-.38.18-.3.12-.17.05-.08h-.02l-.1-.02-.12-.03-.18-.03h-.17l-.2-.02-.18-.02h-.18l-.77.04-.7.08-.65.13-.6.15-.57.2-.53.25-.48.25-.45.29-.42.33-.4.38-.38.37-.37.42-.38.43-.35.48-.37.5-.38.5.9-4.53h-7.17z" clip-rule="evenodd"/><path stroke="#fff" stroke-miterlimit="2.61" stroke-width=".22" d="M695.12 147.7h7.17l2.4-14.22.1-.55.12-.52.13-.53.17-.5.2-.5.25-.48.3-.44.35-.43.4-.38.45-.37.56-.3.59-.27.7-.23.78-.2.85-.12.97-.08h.08l.1.03.12.02h.13l.12.03.11.02.07.03h.02l.03-.1.07-.3.1-.45.13-.55.17-.65.18-.7.23-.7.22-.71.2-.47.25-.48.25-.47.25-.42.22-.38.18-.3.12-.17.05-.08h-.02l-.1-.02-.12-.03-.18-.03h-.17l-.2-.02-.18-.02h-.18l-.77.04-.7.08-.65.13-.6.15-.57.2-.53.25-.48.25-.45.29-.42.33-.4.38-.38.37-.37.42-.38.43-.35.48-.37.5-.38.5.9-4.53h-7.17z"/><path fill="#FBB231" fill-rule="evenodd" d="M804.94 174.01v-.11l.19-.64.36-.58.42-.5.53-.4.6-.3.65-.17.7-.08.7.08.65.17.6.3.53.4.42.5.35.58.2.64v.11h-.72l-.16-.53-.25-.47-.32-.43-.4-.35-.48-.27-.55-.18-.57-.05-.58.05-.54.18-.48.27-.4.35-.33.43-.25.47-.15.53z" clip-rule="evenodd"/><path fill="#FBB231" fill-rule="evenodd" d="M807.14 174.01v-.88h1.67l.28.05.2.05.17.1.13.13.1.15.05.17.02.23h-.5v-.13l-.02-.13-.05-.09-.08-.05-.07-.05-.13-.03-.12-.02h-1.03v.5zm-2.28.54.08-.54h.72v.02l-.05.52zm2.28 0v-.54h.62v.49h.63l.22-.04.18-.03.15-.05.12-.05.1-.07.05-.08.05-.12v-.05h.5l-.02.17-.05.15-.08.13-.1.09zm4.02 0-.04-.52v-.02h.72l.07.54zm-6.3 0v.08l.08.72.19.68.36.6.42.52.53.43.6.3.65.2.7.07.7-.07.65-.2.6-.3.53-.43.42-.52.35-.6.2-.68.07-.72v-.08h-.75v.08l-.04.6-.16.55-.25.47-.32.43-.4.35-.48.28-.55.17-.57.05-.58-.05-.54-.17-.48-.28-.4-.35-.33-.43-.25-.47-.15-.55-.05-.6v-.08z" clip-rule="evenodd"/><path fill="#FBB231" fill-rule="evenodd" d="M807.14 174.55v1.46h.62v-1.26h.63l.74 1.26h.51l-.75-1.26h.17l.18-.04.15-.05.12-.11z" clip-rule="evenodd"/><path fill="#fff" fill-rule="evenodd" d="m695.89 128.9-.2-1.49-.35-1.33-.5-1.15-.63-1-.75-.85-.82-.7-.9-.6-.98-.45-1-.38-1.03-.25-1.03-.17-1.03-.1-.97-.03-2.03.1-1.79.3-1.63.45-1.45.63-1.25.75-1.1.85-.97.95-.8 1-.7 1.05-.57 1.1-.45 1.08-.38 1.07-.27 1.05-.2.97-.15.93-.1.8-.13 2.05.08 1.85.27 1.68.42 1.47.6 1.33.73 1.15.85 1.02.97.85 1.05.73 1.13.62 1.17.48 1.22.37 1.25.3 1.25.18 1.25.13 1.22.02h.82l.78-.02h.67l.65-.03.58-.05.52-.05.5-.05.45-.08.42-.08.4-.09.4-.13.38-.12.37-.15.4-.15.4-.2.4-.2 1-6.15-.72.43-.7.4-.72.3-.7.27-.67.22-.7.15-.68.13-.67.1-.68.05-.65.02h-.68l-.65-.02-.65-.05-.65-.07-.63-.08-.65-.1-.5-.1-.5-.18-.5-.22-.45-.28-.45-.3-.4-.37-.37-.38-.35-.43-.3-.42-.27-.47-.2-.46-.18-.48-.1-.48-.05-.48.02-.42.06-.32h16.22l.12-1.52.38-2.1.18-1.9-.03-1.7zm-6.78 2.3h-9.13v-.02l.06-.35.1-.52.15-.5.17-.5.23-.45.23-.43.27-.4.3-.37.33-.35.32-.3.38-.27.37-.23.43-.2.42-.15.42-.1.45-.08.48-.03.45.05.42.08.4.1.4.15.38.2.37.23.33.25.3.3.25.35.25.37.17.43.18.48.1.5.05.55.03.6-.05.62z" clip-rule="evenodd"/></g><defs><clipPath id="a"><path fill="#fff" d="M0 0h2466.2v258.18H0z"/></clipPath></defs></svg>