<?xml version="1.0" encoding="UTF-8"?>
<svg id="Camada_2" data-name="Camada 2" xmlns="http://www.w3.org/2000/svg" viewBox="0 0 972.32 142.58">
  <defs>
    <style>
      .cls-1 {
        stroke-width: 0px;
      }
    </style>
  </defs>
  <g id="Camada_1-2" data-name="Camada 1">
    <g>
      <path class="cls-1" d="M49.59,65.49c-13.51-6.52-22.41-11.13-27.18-14.94-7.95-6.04-6.99-10.17-6.99-17.96,0-13.19,5.72-29.72,21.14-29.72,14.31,0,32.27,11.76,36.4,29.88l5.56-29.88h-2.23s-1.27,6.2-4.77,6.2c-.79,0-1.75-.32-2.86-1.27C63.26,3.18,47.21,0,37.19,0,9.54,0,0,24.16,0,39.9c0,22.25,19.07,31.47,26.07,34.65,18.44,8.9,27.34,13.51,32.27,17.17,4.93,3.97,6.83,10.49,6.83,18.28,0,13.19-5.56,29.72-21.14,29.72-17.48,0-37.19-18.92-41.33-37.19l-2.7,37.19h2.07s1.27-6.36,4.77-6.36c.79,0,1.59.32,2.7,1.27,5.56,4.77,23.21,7.95,33.7,7.95,29.09,0,37.51-25.11,37.51-40.06,0-22.89-19.23-31.47-31.15-37.04Z"/>
      <path class="cls-1" d="M85.2,2.86l-4.45,27.34h2.86l5.4-13.03c1.75-3.97,7.15-11.44,15.9-11.44h2.07c9.22,0,10.97,7.47,10.97,13.51v104.11c0,6.04-2.54,13.51-5.4,13.51v2.86h27.34v-2.86c-2.86,0-5.56-7.47-5.56-13.51V19.23c0-6.04,1.91-13.51,10.97-13.51h2.07c8.9,0,14.31,7.47,16.05,11.44l5.4,13.03h2.86l-4.45-27.34h-82.02Z"/>
      <path class="cls-1" d="M234.62,125.41c-1.75,3.97-7.15,11.44-16.05,11.44h-13.99c-9.06,0-10.97-7.47-10.97-13.51V58.02h21.78c3.97,0,8.58-.32,8.58,14.94v1.11h2.54v-34.81h-2.54v.95c0,15.1-4.61,14.94-8.42,14.94h-21.94V19.23c0-6.04,1.91-13.51,10.97-13.51h12.4c8.9,0,14.31,7.47,15.9,11.44l5.56,13.03h2.86l-4.45-27.34h-65.01v2.86c2.86,0,5.4,7.47,5.4,13.51v104.11c0,6.04-2.54,13.51-5.4,13.51v2.86h66.6l4.45-27.34h-2.86l-5.4,13.03Z"/>
      <path class="cls-1" d="M309.96,125.25c-1.75,4.13-7.15,11.6-16.05,11.6h-13.99c-9.06,0-10.97-7.47-10.97-13.51V19.23c0-6.04,2.54-13.51,5.56-13.51v-2.86h-27.34v2.86c2.86,0,5.4,7.47,5.4,13.51v104.11c0,6.04-2.54,13.51-5.4,13.51v2.86h66.6l4.45-27.34h-2.86l-5.4,12.88Z"/>
      <path class="cls-1" d="M388.64,125.25c-1.75,4.13-7.15,11.6-16.05,11.6h-13.99c-9.06,0-10.97-7.47-10.97-13.51V19.23c0-6.04,2.54-13.51,5.56-13.51v-2.86h-27.34v2.86c2.86,0,5.4,7.47,5.4,13.51v104.11c0,6.04-2.54,13.51-5.4,13.51v2.86h66.6l4.45-27.34h-2.86l-5.4,12.88Z"/>
      <path class="cls-1" d="M480.2,119.21L444.91,2.86h-3.18l-29.57,105.07c-6.04,21.46-4.13,34.65,8.58,34.65,2.7,0,5.88-.64,9.7-1.91,20.82-6.84,5.56-38.78,24.16-38.78,1.27,0,3.02.32,4.77.64-4.13-1.91-7.31-2.7-10.01-2.7-14.62,0-11.29,24-24.64,26.23-8.58,1.43-10.01-9.38-8.27-17.96,3.34-16.53,14.15-56.43,21.3-81.38l21.62,75.82,3.34,11.6c1.43,5.09,1.59,20.66-9.38,22.73v2.86h37.99v-2.86c-6.99-4.77-10.01-13.67-11.13-17.64Z"/>
      <path class="cls-1" d="M588.13,65.49c-13.51-6.52-22.41-11.13-27.18-14.94-7.95-6.04-6.99-10.17-6.99-17.96,0-13.19,5.72-29.72,21.14-29.72,14.31,0,32.27,11.76,36.4,29.88l5.56-29.88h-2.23s-1.27,6.2-4.77,6.2c-.79,0-1.75-.32-2.86-1.27-5.4-4.61-21.46-7.79-31.47-7.79-27.66,0-37.19,24.16-37.19,39.9,0,22.25,19.07,31.47,26.07,34.65,18.44,8.9,27.34,13.51,32.27,17.17,4.93,3.97,6.83,10.49,6.83,18.28,0,13.19-5.56,29.72-21.14,29.72-17.48,0-37.2-18.92-41.33-37.19l-2.7,37.19h2.07s1.27-6.36,4.77-6.36c.79,0,1.59.32,2.7,1.27,5.56,4.77,23.21,7.95,33.7,7.95,29.09,0,37.51-25.11,37.51-40.06,0-22.89-19.23-31.47-31.15-37.04Z"/>
      <path class="cls-1" d="M705.75,2.86h-82.02l-4.45,27.34h2.86l5.4-13.03c1.75-3.97,7.15-11.44,15.9-11.44h2.07c9.22,0,10.97,7.47,10.97,13.51v104.11c0,6.04-2.54,13.51-5.4,13.51v2.86h27.34v-2.86c-2.86,0-5.56-7.47-5.56-13.51V19.23c0-6.04,1.91-13.51,10.97-13.51h2.07c8.9,0,14.31,7.47,16.05,11.44l5.4,13.03h2.86l-4.45-27.34Z"/>
      <path class="cls-1" d="M757.73,0c-27.18,0-49.28,31.95-49.28,71.21s22.09,71.21,49.28,71.21,49.12-31.95,49.12-71.21S784.91,0,757.73,0ZM758.05,139.56c-17.17,0-31.15-30.68-31.15-68.35s13.83-68.35,31-68.35,31.15,30.52,31.15,68.35-13.83,68.35-31,68.35Z"/>
      <path class="cls-1" d="M879.65,5.72c2.86,0,5.4,12.88,5.4,19.07v76.14L833.71,2.86h-20.66v2.86c2.86,0,5.4,7.47,5.4,13.51v98.55c0,6.2-2.54,19.07-5.4,19.07v2.86h13.67v-2.86c-2.86,0-5.4-12.88-5.4-19.07V12.4l63.74,127.32h2.86V24.8c0-6.2,2.54-19.07,5.56-19.07v-2.86h-13.83v2.86Z"/>
      <path class="cls-1" d="M969.46,112.38l-5.4,13.03c-1.75,3.97-7.15,11.44-16.05,11.44h-13.99c-9.06,0-10.97-7.47-10.97-13.51V58.02h21.78c3.97,0,8.58-.32,8.58,14.94v1.11h2.54v-34.81h-2.54v.95c0,15.1-4.61,14.94-8.42,14.94h-21.94V19.23c0-6.04,1.91-13.51,10.97-13.51h12.4c8.9,0,14.31,7.47,15.9,11.44l5.56,13.03h2.86l-4.45-27.34h-65.01v2.86c2.86,0,5.4,7.47,5.4,13.51v104.11c0,6.04-2.54,13.51-5.4,13.51v2.86h66.6l4.45-27.34h-2.86Z"/>
    </g>
  </g>
</svg>